<?xml version="1.0" encoding="UTF-8"?>
<svg xmlns="http://www.w3.org/2000/svg" xmlns:xlink="http://www.w3.org/1999/xlink" width="315pt" height="110pt" viewBox="0 0 315 110" version="1.1">
<g id="surface1">
<path style="fill-rule:nonzero;fill:rgb(69.803922%,85.098039%,100%);fill-opacity:1;stroke-width:1;stroke-linecap:round;stroke-linejoin:round;stroke:rgb(0%,0%,0%);stroke-opacity:1;stroke-miterlimit:10;" d="M 124.015625 139.234375 C 128.996875 144.215625 128.996875 152.284375 124.015625 157.265625 C 119.034375 162.246875 110.965625 162.246875 105.984375 157.265625 C 101.003125 152.284375 101.003125 144.215625 105.984375 139.234375 C 110.965625 134.253125 119.034375 134.253125 124.015625 139.234375 " transform="matrix(1.25,0,0,1.25,-43.75,-92.5)"/>
<path style=" stroke:none;fill-rule:nonzero;fill:rgb(0%,0%,0%);fill-opacity:1;" d="M 98.363281 90.703125 C 98.207031 89.921875 98.070312 89.726562 97.796875 89.726562 C 97.523438 89.726562 97.152344 89.804688 96.46875 90.058594 L 96.351562 90.097656 L 96.390625 90.273438 L 96.585938 90.214844 C 96.800781 90.15625 96.9375 90.136719 97.015625 90.136719 C 97.308594 90.136719 97.386719 90.234375 97.542969 90.898438 L 97.855469 92.304688 L 96.9375 93.613281 C 96.703125 93.945312 96.488281 94.160156 96.351562 94.160156 C 96.292969 94.160156 96.175781 94.121094 96.058594 94.0625 C 95.921875 93.984375 95.804688 93.925781 95.707031 93.925781 C 95.492188 93.925781 95.316406 94.121094 95.316406 94.335938 C 95.316406 94.628906 95.53125 94.804688 95.882812 94.804688 C 96.234375 94.804688 96.46875 94.707031 96.957031 94.042969 L 97.953125 92.714844 L 98.265625 94.042969 C 98.402344 94.609375 98.578125 94.804688 98.929688 94.804688 C 99.359375 94.804688 99.652344 94.550781 100.316406 93.535156 L 100.140625 93.417969 C 100.042969 93.535156 100.003906 93.613281 99.90625 93.75 C 99.652344 94.082031 99.515625 94.199219 99.378906 94.199219 C 99.222656 94.199219 99.125 94.042969 99.046875 93.730469 L 98.675781 92.226562 C 98.617188 91.953125 98.578125 91.796875 98.578125 91.71875 C 99.085938 90.859375 99.496094 90.351562 99.691406 90.351562 C 99.964844 90.351562 100.0625 90.546875 100.277344 90.546875 C 100.492188 90.546875 100.648438 90.371094 100.648438 90.136719 C 100.648438 89.902344 100.472656 89.726562 100.199219 89.726562 C 99.710938 89.726562 99.28125 90.136719 98.5 91.328125 Z M 98.363281 90.703125 "/>
<path style=" stroke:none;fill-rule:nonzero;fill:rgb(0%,0%,0%);fill-opacity:1;" d="M 103.570312 98.4375 L 103.570312 98.320312 C 103.003906 98.320312 102.867188 98.183594 102.867188 97.871094 L 102.867188 93.398438 L 102.789062 93.359375 L 101.460938 94.042969 L 101.460938 94.160156 L 101.65625 94.082031 C 101.792969 94.023438 101.910156 93.984375 101.988281 93.984375 C 102.144531 93.984375 102.222656 94.101562 102.222656 94.355469 L 102.222656 97.734375 C 102.222656 98.144531 102.066406 98.300781 101.5 98.320312 L 101.5 98.4375 Z M 103.570312 98.4375 "/>
<path style="fill-rule:nonzero;fill:rgb(69.803922%,85.098039%,100%);fill-opacity:1;stroke-width:1;stroke-linecap:round;stroke-linejoin:round;stroke:rgb(0%,0%,0%);stroke-opacity:1;stroke-miterlimit:10;" d="M 176.890625 139.234375 C 181.871875 144.215625 181.871875 152.284375 176.890625 157.265625 C 171.909375 162.246875 163.840625 162.246875 158.859375 157.265625 C 153.878125 152.284375 153.878125 144.215625 158.859375 139.234375 C 163.840625 134.253125 171.909375 134.253125 176.890625 139.234375 " transform="matrix(1.25,0,0,1.25,-43.75,-92.5)"/>
<path style=" stroke:none;fill-rule:nonzero;fill:rgb(0%,0%,0%);fill-opacity:1;" d="M 164.457031 90.703125 C 164.300781 89.921875 164.164062 89.726562 163.890625 89.726562 C 163.617188 89.726562 163.246094 89.804688 162.5625 90.058594 L 162.445312 90.097656 L 162.484375 90.273438 L 162.679688 90.214844 C 162.894531 90.15625 163.03125 90.136719 163.109375 90.136719 C 163.402344 90.136719 163.480469 90.234375 163.636719 90.898438 L 163.949219 92.304688 L 163.03125 93.613281 C 162.796875 93.945312 162.582031 94.160156 162.445312 94.160156 C 162.386719 94.160156 162.269531 94.121094 162.152344 94.0625 C 162.015625 93.984375 161.898438 93.925781 161.800781 93.925781 C 161.585938 93.925781 161.410156 94.121094 161.410156 94.335938 C 161.410156 94.628906 161.625 94.804688 161.976562 94.804688 C 162.328125 94.804688 162.5625 94.707031 163.050781 94.042969 L 164.046875 92.714844 L 164.359375 94.042969 C 164.496094 94.609375 164.671875 94.804688 165.023438 94.804688 C 165.453125 94.804688 165.746094 94.550781 166.410156 93.535156 L 166.234375 93.417969 C 166.136719 93.535156 166.097656 93.613281 166 93.75 C 165.746094 94.082031 165.609375 94.199219 165.472656 94.199219 C 165.316406 94.199219 165.21875 94.042969 165.140625 93.730469 L 164.769531 92.226562 C 164.710938 91.953125 164.671875 91.796875 164.671875 91.71875 C 165.179688 90.859375 165.589844 90.351562 165.785156 90.351562 C 166.058594 90.351562 166.15625 90.546875 166.371094 90.546875 C 166.585938 90.546875 166.742188 90.371094 166.742188 90.136719 C 166.742188 89.902344 166.566406 89.726562 166.292969 89.726562 C 165.804688 89.726562 165.375 90.136719 164.59375 91.328125 Z M 164.457031 90.703125 "/>
<path style=" stroke:none;fill-rule:nonzero;fill:rgb(0%,0%,0%);fill-opacity:1;" d="M 170.269531 97.402344 L 170.171875 97.363281 C 169.917969 97.792969 169.761719 97.871094 169.449219 97.871094 L 167.691406 97.871094 L 168.921875 96.542969 C 169.585938 95.839844 169.878906 95.273438 169.878906 94.6875 C 169.878906 93.945312 169.351562 93.359375 168.492188 93.359375 C 167.574219 93.359375 167.105469 93.984375 166.949219 94.863281 L 167.105469 94.902344 C 167.398438 94.160156 167.652344 93.925781 168.199219 93.925781 C 168.84375 93.925781 169.234375 94.296875 169.234375 94.980469 C 169.234375 95.625 168.980469 96.191406 168.257812 96.933594 L 166.929688 98.339844 L 166.929688 98.4375 L 169.859375 98.4375 Z M 170.269531 97.402344 "/>
<path style=" stroke:none;fill-rule:nonzero;fill:rgb(0%,0%,0%);fill-opacity:1;" d="M 9.453125 91.132812 L 9.453125 92.792969 L 8.339844 92.792969 C 8.613281 92.070312 8.886719 91.25 9.121094 90.332031 L 11.289062 90.332031 L 11.289062 89.570312 L 9.316406 89.570312 C 9.414062 89.121094 9.511719 88.632812 9.628906 88.125 L 8.886719 87.96875 C 8.769531 88.515625 8.671875 89.0625 8.554688 89.570312 L 7.441406 89.570312 L 7.441406 90.332031 L 8.378906 90.332031 C 8.125 91.328125 7.851562 92.1875 7.519531 92.851562 L 7.695312 93.535156 L 9.453125 93.535156 L 9.453125 95.214844 C 8.789062 95.332031 8.105469 95.449219 7.363281 95.527344 L 7.460938 96.328125 C 8.144531 96.210938 8.808594 96.113281 9.453125 95.976562 L 9.453125 98.320312 L 10.195312 98.320312 L 10.195312 95.820312 L 11.269531 95.546875 L 11.269531 94.785156 C 10.9375 94.863281 10.585938 94.960938 10.195312 95.058594 L 10.195312 93.535156 L 11.230469 93.535156 L 11.230469 92.792969 L 10.195312 92.792969 L 10.195312 91.132812 Z M 12.773438 90.546875 L 12.773438 91.210938 L 15.996094 91.210938 L 15.996094 90.546875 L 12.773438 90.546875 C 13.339844 90 13.886719 89.394531 14.414062 88.75 C 15.273438 89.84375 16.230469 90.78125 17.285156 91.542969 L 17.714844 90.917969 C 16.699219 90.195312 15.703125 89.238281 14.707031 88.027344 L 14.140625 88.027344 C 13.222656 89.140625 12.1875 90.136719 11.035156 90.976562 L 11.484375 91.660156 C 11.914062 91.308594 12.34375 90.9375 12.773438 90.546875 Z M 13.554688 98.242188 C 14.101562 98.242188 14.394531 97.949219 14.394531 97.363281 L 14.394531 92.109375 L 11.738281 92.109375 L 11.738281 98.320312 L 12.441406 98.320312 L 12.441406 96.210938 L 13.710938 96.210938 L 13.710938 97.226562 C 13.710938 97.460938 13.574219 97.597656 13.339844 97.597656 L 12.832031 97.578125 L 13.007812 98.242188 Z M 12.441406 95.585938 L 12.441406 94.511719 L 13.710938 94.511719 L 13.710938 95.585938 Z M 12.441406 93.886719 L 12.441406 92.773438 L 13.710938 92.773438 L 13.710938 93.886719 Z M 15.058594 92.421875 L 15.058594 96.464844 L 15.703125 96.464844 L 15.703125 92.421875 Z M 16.289062 98.261719 C 16.835938 98.261719 17.109375 97.929688 17.109375 97.285156 L 17.109375 91.914062 L 16.40625 91.914062 L 16.40625 97.109375 C 16.40625 97.421875 16.289062 97.597656 16.035156 97.597656 C 15.761719 97.597656 15.46875 97.578125 15.175781 97.539062 L 15.332031 98.261719 Z M 16.289062 98.261719 "/>
<path style=" stroke:none;fill-rule:nonzero;fill:rgb(0%,0%,0%);fill-opacity:1;" d="M 23.261719 90.605469 C 22.539062 93.59375 20.976562 95.898438 18.554688 97.460938 L 19.042969 98.164062 C 21.40625 96.621094 22.96875 94.414062 23.710938 91.542969 C 23.769531 91.679688 23.808594 91.835938 23.886719 92.03125 C 25.039062 95 26.523438 97.050781 28.359375 98.144531 L 28.867188 97.5 C 27.070312 96.386719 25.664062 94.472656 24.609375 91.796875 C 23.925781 89.960938 23.066406 88.691406 22.070312 87.988281 L 21.40625 88.417969 C 22.109375 88.945312 22.734375 89.667969 23.261719 90.605469 Z M 23.261719 90.605469 "/>
<path style=" stroke:none;fill-rule:nonzero;fill:rgb(0%,0%,0%);fill-opacity:1;" d="M 33.027344 92.304688 L 33.027344 93.027344 L 39.121094 93.027344 L 39.121094 92.304688 Z M 32.226562 94.140625 L 32.226562 94.882812 L 34.6875 94.882812 C 33.90625 96.152344 33.242188 96.933594 32.753906 97.226562 C 32.695312 97.246094 32.65625 97.285156 32.578125 97.304688 L 32.753906 97.988281 C 34.882812 97.851562 36.835938 97.65625 38.613281 97.421875 C 38.847656 97.695312 39.042969 97.988281 39.238281 98.28125 L 39.882812 97.832031 C 39.394531 97.109375 38.671875 96.25 37.753906 95.273438 L 37.148438 95.644531 C 37.480469 96.035156 37.8125 96.40625 38.125 96.777344 C 36.679688 96.992188 35.214844 97.148438 33.730469 97.246094 C 34.257812 96.777344 34.863281 95.976562 35.546875 94.882812 L 39.863281 94.882812 L 39.863281 94.140625 Z M 38.496094 89.199219 L 38.496094 90.507812 L 31.875 90.507812 L 31.875 89.199219 Z M 31.875 91.230469 L 39.277344 91.230469 L 39.277344 88.4375 L 31.09375 88.4375 L 31.09375 92.167969 C 31.074219 94.433594 30.683594 96.269531 29.902344 97.695312 L 30.488281 98.242188 C 31.40625 96.542969 31.875 94.511719 31.875 92.167969 Z M 31.875 91.230469 "/>
<path style=" stroke:none;fill-rule:nonzero;fill:rgb(0%,0%,0%);fill-opacity:1;" d="M 9.453125 14.882812 L 9.453125 16.542969 L 8.339844 16.542969 C 8.613281 15.820312 8.886719 15 9.121094 14.082031 L 11.289062 14.082031 L 11.289062 13.320312 L 9.316406 13.320312 C 9.414062 12.871094 9.511719 12.382812 9.628906 11.875 L 8.886719 11.71875 C 8.769531 12.265625 8.671875 12.8125 8.554688 13.320312 L 7.441406 13.320312 L 7.441406 14.082031 L 8.378906 14.082031 C 8.125 15.078125 7.851562 15.9375 7.519531 16.601562 L 7.695312 17.285156 L 9.453125 17.285156 L 9.453125 18.964844 C 8.789062 19.082031 8.105469 19.199219 7.363281 19.277344 L 7.460938 20.078125 C 8.144531 19.960938 8.808594 19.863281 9.453125 19.726562 L 9.453125 22.070312 L 10.195312 22.070312 L 10.195312 19.570312 L 11.269531 19.296875 L 11.269531 18.535156 C 10.9375 18.613281 10.585938 18.710938 10.195312 18.808594 L 10.195312 17.285156 L 11.230469 17.285156 L 11.230469 16.542969 L 10.195312 16.542969 L 10.195312 14.882812 Z M 12.773438 14.296875 L 12.773438 14.960938 L 15.996094 14.960938 L 15.996094 14.296875 L 12.773438 14.296875 C 13.339844 13.75 13.886719 13.144531 14.414062 12.5 C 15.273438 13.59375 16.230469 14.53125 17.285156 15.292969 L 17.714844 14.667969 C 16.699219 13.945312 15.703125 12.988281 14.707031 11.777344 L 14.140625 11.777344 C 13.222656 12.890625 12.1875 13.886719 11.035156 14.726562 L 11.484375 15.410156 C 11.914062 15.058594 12.34375 14.6875 12.773438 14.296875 Z M 13.554688 21.992188 C 14.101562 21.992188 14.394531 21.699219 14.394531 21.113281 L 14.394531 15.859375 L 11.738281 15.859375 L 11.738281 22.070312 L 12.441406 22.070312 L 12.441406 19.960938 L 13.710938 19.960938 L 13.710938 20.976562 C 13.710938 21.210938 13.574219 21.347656 13.339844 21.347656 L 12.832031 21.328125 L 13.007812 21.992188 Z M 12.441406 19.335938 L 12.441406 18.261719 L 13.710938 18.261719 L 13.710938 19.335938 Z M 12.441406 17.636719 L 12.441406 16.523438 L 13.710938 16.523438 L 13.710938 17.636719 Z M 15.058594 16.171875 L 15.058594 20.214844 L 15.703125 20.214844 L 15.703125 16.171875 Z M 16.289062 22.011719 C 16.835938 22.011719 17.109375 21.679688 17.109375 21.035156 L 17.109375 15.664062 L 16.40625 15.664062 L 16.40625 20.859375 C 16.40625 21.171875 16.289062 21.347656 16.035156 21.347656 C 15.761719 21.347656 15.46875 21.328125 15.175781 21.289062 L 15.332031 22.011719 Z M 16.289062 22.011719 "/>
<path style=" stroke:none;fill-rule:nonzero;fill:rgb(0%,0%,0%);fill-opacity:1;" d="M 26.796875 15.664062 L 24.160156 15.664062 L 24.160156 11.738281 L 23.339844 11.738281 L 23.339844 15.664062 L 20.703125 15.664062 L 20.703125 12.597656 L 19.882812 12.597656 L 19.882812 16.445312 L 23.339844 16.445312 L 23.339844 20.585938 L 20.15625 20.585938 L 20.15625 17.5 L 19.335938 17.5 L 19.335938 21.992188 L 20.15625 21.992188 L 20.15625 21.347656 L 27.34375 21.347656 L 27.34375 21.992188 L 28.164062 21.992188 L 28.164062 17.5 L 27.34375 17.5 L 27.34375 20.585938 L 24.160156 20.585938 L 24.160156 16.445312 L 27.617188 16.445312 L 27.617188 12.597656 L 26.796875 12.597656 Z M 26.796875 15.664062 "/>
<path style=" stroke:none;fill-rule:nonzero;fill:rgb(0%,0%,0%);fill-opacity:1;" d="M 33.027344 16.054688 L 33.027344 16.777344 L 39.121094 16.777344 L 39.121094 16.054688 Z M 32.226562 17.890625 L 32.226562 18.632812 L 34.6875 18.632812 C 33.90625 19.902344 33.242188 20.683594 32.753906 20.976562 C 32.695312 20.996094 32.65625 21.035156 32.578125 21.054688 L 32.753906 21.738281 C 34.882812 21.601562 36.835938 21.40625 38.613281 21.171875 C 38.847656 21.445312 39.042969 21.738281 39.238281 22.03125 L 39.882812 21.582031 C 39.394531 20.859375 38.671875 20 37.753906 19.023438 L 37.148438 19.394531 C 37.480469 19.785156 37.8125 20.15625 38.125 20.527344 C 36.679688 20.742188 35.214844 20.898438 33.730469 20.996094 C 34.257812 20.527344 34.863281 19.726562 35.546875 18.632812 L 39.863281 18.632812 L 39.863281 17.890625 Z M 38.496094 12.949219 L 38.496094 14.257812 L 31.875 14.257812 L 31.875 12.949219 Z M 31.875 14.980469 L 39.277344 14.980469 L 39.277344 12.1875 L 31.09375 12.1875 L 31.09375 15.917969 C 31.074219 18.183594 30.683594 20.019531 29.902344 21.445312 L 30.488281 21.992188 C 31.40625 20.292969 31.875 18.261719 31.875 15.917969 Z M 31.875 14.980469 "/>
<path style="fill-rule:nonzero;fill:rgb(69.803922%,85.098039%,100%);fill-opacity:1;stroke-width:1;stroke-linecap:round;stroke-linejoin:round;stroke:rgb(0%,0%,0%);stroke-opacity:1;stroke-miterlimit:10;" d="M 282.640625 138.484375 C 287.621875 143.465625 287.621875 151.534375 282.640625 156.515625 C 277.659375 161.496875 269.590625 161.496875 264.609375 156.515625 C 259.628125 151.534375 259.628125 143.465625 264.609375 138.484375 C 269.590625 133.503125 277.659375 133.503125 282.640625 138.484375 " transform="matrix(1.25,0,0,1.25,-43.75,-92.5)"/>
<path style=" stroke:none;fill-rule:nonzero;fill:rgb(0%,0%,0%);fill-opacity:1;" d="M 296.644531 89.765625 C 296.488281 88.984375 296.351562 88.789062 296.078125 88.789062 C 295.804688 88.789062 295.433594 88.867188 294.75 89.121094 L 294.632812 89.160156 L 294.671875 89.335938 L 294.867188 89.277344 C 295.082031 89.21875 295.21875 89.199219 295.296875 89.199219 C 295.589844 89.199219 295.667969 89.296875 295.824219 89.960938 L 296.136719 91.367188 L 295.21875 92.675781 C 294.984375 93.007812 294.769531 93.222656 294.632812 93.222656 C 294.574219 93.222656 294.457031 93.183594 294.339844 93.125 C 294.203125 93.046875 294.085938 92.988281 293.988281 92.988281 C 293.773438 92.988281 293.597656 93.183594 293.597656 93.398438 C 293.597656 93.691406 293.8125 93.867188 294.164062 93.867188 C 294.515625 93.867188 294.75 93.769531 295.238281 93.105469 L 296.234375 91.777344 L 296.546875 93.105469 C 296.683594 93.671875 296.859375 93.867188 297.210938 93.867188 C 297.640625 93.867188 297.933594 93.613281 298.597656 92.597656 L 298.421875 92.480469 C 298.324219 92.597656 298.285156 92.675781 298.1875 92.8125 C 297.933594 93.144531 297.796875 93.261719 297.660156 93.261719 C 297.503906 93.261719 297.40625 93.105469 297.328125 92.792969 L 296.957031 91.289062 C 296.898438 91.015625 296.859375 90.859375 296.859375 90.78125 C 297.367188 89.921875 297.777344 89.414062 297.972656 89.414062 C 298.246094 89.414062 298.34375 89.609375 298.558594 89.609375 C 298.773438 89.609375 298.929688 89.433594 298.929688 89.199219 C 298.929688 88.964844 298.753906 88.789062 298.480469 88.789062 C 297.992188 88.789062 297.5625 89.199219 296.78125 90.390625 Z M 296.644531 89.765625 "/>
<path style=" stroke:none;fill-rule:nonzero;fill:rgb(0%,0%,0%);fill-opacity:1;" d="M 302.808594 92.382812 C 302.417969 92.460938 302.144531 92.5 301.65625 92.558594 L 301.65625 92.675781 C 302.066406 92.695312 302.144531 92.714844 302.144531 92.871094 C 302.144531 92.96875 302.144531 93.007812 302.046875 93.398438 L 301.695312 94.628906 C 301.65625 94.335938 301.519531 94.199219 301.207031 94.199219 C 300.230469 94.199219 299.019531 95.488281 299.019531 96.699219 C 299.019531 97.265625 299.332031 97.578125 299.820312 97.578125 C 300.328125 97.578125 300.71875 97.34375 301.148438 96.601562 C 301.070312 96.972656 301.050781 97.089844 301.050781 97.265625 C 301.050781 97.460938 301.167969 97.597656 301.363281 97.597656 C 301.734375 97.597656 302.105469 97.285156 302.457031 96.738281 L 302.378906 96.660156 C 301.96875 97.128906 301.890625 97.207031 301.753906 97.207031 C 301.65625 97.207031 301.617188 97.148438 301.617188 97.050781 C 301.617188 96.933594 301.871094 96.054688 302.105469 95.195312 L 302.554688 93.554688 L 302.847656 92.421875 Z M 301.578125 94.785156 C 301.578125 95.9375 300.796875 97.226562 300.09375 97.226562 C 299.839844 97.226562 299.664062 97.011719 299.664062 96.679688 C 299.664062 96.054688 300.035156 95.234375 300.542969 94.707031 C 300.738281 94.492188 301.011719 94.355469 301.226562 94.355469 C 301.382812 94.355469 301.578125 94.53125 301.578125 94.785156 Z M 301.578125 94.785156 "/>
<path style="fill-rule:nonzero;fill:rgb(40%,74.901961%,100%);fill-opacity:1;stroke-width:1;stroke-linecap:round;stroke-linejoin:round;stroke:rgb(0%,0%,0%);stroke-opacity:1;stroke-miterlimit:10;" d="M 202.640625 78.234375 C 207.621875 83.215625 207.621875 91.284375 202.640625 96.265625 C 197.659375 101.246875 189.590625 101.246875 184.609375 96.265625 C 179.628125 91.284375 179.628125 83.215625 184.609375 78.234375 C 189.590625 73.253125 197.659375 73.253125 202.640625 78.234375 " transform="matrix(1.25,0,0,1.25,-43.75,-92.5)"/>
<path style=" stroke:none;fill-rule:nonzero;fill:rgb(0%,0%,0%);fill-opacity:1;" d="M 198.867188 15.058594 C 198.867188 14.0625 198.183594 13.476562 197.265625 13.476562 C 196.816406 13.476562 196.367188 13.574219 195.917969 13.808594 C 194.746094 14.453125 193.90625 15.742188 193.90625 16.992188 C 193.90625 17.96875 194.492188 18.554688 195.546875 18.554688 C 196.289062 18.554688 197.011719 18.28125 197.675781 17.636719 C 198.417969 16.894531 198.867188 15.898438 198.867188 15.058594 Z M 197.910156 14.765625 C 197.910156 15.625 197.597656 16.679688 197.089844 17.382812 C 196.640625 18.007812 196.210938 18.320312 195.722656 18.320312 C 195.195312 18.320312 194.84375 17.96875 194.84375 17.304688 C 194.84375 16.40625 195.15625 15.527344 195.683594 14.726562 C 196.132812 14.0625 196.621094 13.710938 197.109375 13.710938 C 197.597656 13.710938 197.910156 14.082031 197.910156 14.765625 Z M 197.910156 14.765625 "/>
<path style=" stroke:none;fill-rule:nonzero;fill:rgb(0%,0%,0%);fill-opacity:1;" d="M 202.167969 22.1875 L 202.167969 22.070312 C 201.601562 22.070312 201.464844 21.933594 201.464844 21.621094 L 201.464844 17.148438 L 201.386719 17.109375 L 200.058594 17.792969 L 200.058594 17.910156 L 200.253906 17.832031 C 200.390625 17.773438 200.507812 17.734375 200.585938 17.734375 C 200.742188 17.734375 200.820312 17.851562 200.820312 18.105469 L 200.820312 21.484375 C 200.820312 21.894531 200.664062 22.050781 200.097656 22.070312 L 200.097656 22.1875 Z M 202.167969 22.1875 "/>
<path style="fill:none;stroke-width:1;stroke-linecap:round;stroke-linejoin:round;stroke:rgb(0%,0%,0%);stroke-opacity:1;stroke-miterlimit:10;" d="M 125.075 140.434375 L 178.890625 98.684375 " transform="matrix(1.25,0,0,1.25,-43.75,-92.5)"/>
<path style="fill:none;stroke-width:1;stroke-linecap:butt;stroke-linejoin:miter;stroke:rgb(0%,0%,0%);stroke-opacity:1;stroke-miterlimit:10;" d="M 182.05 96.23125 L 178.890625 98.684375 M 177.96875 97.496875 L 182.05 96.23125 L 179.809375 99.86875 " transform="matrix(1.25,0,0,1.25,-43.75,-92.5)"/>
<path style="fill:none;stroke-width:1;stroke-linecap:round;stroke-linejoin:round;stroke:rgb(0%,0%,0%);stroke-opacity:1;stroke-miterlimit:10;" d="M 172.8375 136.5 L 186.371875 104.434375 " transform="matrix(1.25,0,0,1.25,-43.75,-92.5)"/>
<path style="fill:none;stroke-width:1;stroke-linecap:butt;stroke-linejoin:miter;stroke:rgb(0%,0%,0%);stroke-opacity:1;stroke-miterlimit:10;" d="M 187.925 100.75 L 186.371875 104.434375 M 184.9875 103.85 L 187.925 100.75 L 187.753125 105.01875 " transform="matrix(1.25,0,0,1.25,-43.75,-92.5)"/>
<path style="fill:none;stroke-width:1;stroke-linecap:round;stroke-linejoin:round;stroke:rgb(0%,0%,0%);stroke-opacity:1;stroke-miterlimit:10;" d="M 263.4375 139.828125 L 208.525 98.471875 " transform="matrix(1.25,0,0,1.25,-43.75,-92.5)"/>
<path style="fill:none;stroke-width:1;stroke-linecap:butt;stroke-linejoin:miter;stroke:rgb(0%,0%,0%);stroke-opacity:1;stroke-miterlimit:10;" d="M 205.328125 96.0625 L 208.525 98.471875 M 207.621875 99.66875 L 205.328125 96.0625 L 209.425 97.275 " transform="matrix(1.25,0,0,1.25,-43.75,-92.5)"/>
<path style=" stroke:none;fill-rule:nonzero;fill:rgb(0%,0%,0%);fill-opacity:1;" d="M 239.941406 94.140625 C 239.941406 93.535156 239.433594 93.007812 238.847656 93.007812 C 238.222656 93.007812 237.734375 93.496094 237.734375 94.121094 C 237.734375 94.746094 238.203125 95.214844 238.828125 95.214844 C 239.433594 95.214844 239.941406 94.726562 239.941406 94.140625 Z M 233.28125 94.140625 C 233.28125 93.535156 232.773438 93.007812 232.1875 93.007812 C 231.5625 93.007812 231.074219 93.496094 231.074219 94.121094 C 231.074219 94.746094 231.542969 95.214844 232.167969 95.214844 C 232.773438 95.214844 233.28125 94.726562 233.28125 94.140625 Z M 226.621094 94.140625 C 226.621094 93.535156 226.113281 93.007812 225.527344 93.007812 C 224.902344 93.007812 224.414062 93.496094 224.414062 94.121094 C 224.414062 94.746094 224.882812 95.214844 225.507812 95.214844 C 226.113281 95.214844 226.621094 94.726562 226.621094 94.140625 Z M 226.621094 94.140625 "/>
</g>
</svg>
